<?xml version="1.0" standalone="no"?>
<!DOCTYPE svg PUBLIC "-//W3C//DTD SVG 20010904//EN"
 "http://www.w3.org/TR/2001/REC-SVG-20010904/DTD/svg10.dtd">
<svg version="1.0" xmlns="http://www.w3.org/2000/svg"
 width="500.000000pt" height="500.000000pt" viewBox="0 0 500.000000 500.000000"
 preserveAspectRatio="xMidYMid meet">
<metadata>
Created by potrace 1.11, written by Peter Selinger 2001-2013
</metadata>
<g transform="translate(0.000000,500.000000) scale(0.100000,-0.100000)"
fill="#000000" stroke="none">
<path d="M2406 4738 c-49 -10 -95 -23 -103 -29 -11 -10 -13 -31 -8 -98 3 -47
8 -115 10 -151 5 -63 11 -138 20 -230 2 -25 7 -74 10 -110 3 -36 7 -81 10
-100 3 -19 7 -54 10 -77 3 -24 7 -62 10 -85 3 -24 8 -61 11 -83 4 -37 48 -298
59 -355 2 -14 14 -73 25 -132 11 -60 29 -156 41 -215 11 -60 36 -191 55 -293
37 -199 41 -222 49 -260 3 -14 14 -72 25 -130 45 -243 48 -259 79 -370 41
-146 59 -204 140 -455 85 -262 131 -428 148 -537 4 -29 2 -38 -15 -47 -25 -14
-41 -60 -43 -131 -4 -102 -19 -93 149 -86 201 10 343 23 432 41 14 2 36 7 50
10 14 2 41 7 60 10 19 3 96 17 170 31 74 15 146 28 160 30 14 3 70 13 125 24
55 10 116 22 135 25 113 19 285 82 337 121 l33 25 0 104 c0 104 0 105 -26 111
-27 7 -250 -1 -294 -10 -13 -3 -42 -8 -65 -12 -75 -11 -319 -63 -485 -103
-213 -51 -359 -76 -371 -64 -12 12 -30 108 -49 268 -11 92 -14 120 -25 235 -3
36 -7 83 -10 105 -2 22 -7 81 -10 130 -4 50 -8 106 -10 125 -2 19 -7 69 -10
110 -4 41 -8 95 -11 120 -2 25 -7 68 -9 95 -3 28 -7 64 -9 80 -3 17 -8 53 -11
80 -19 143 -163 765 -260 1120 -9 33 -18 67 -20 75 -13 59 -146 504 -190 635
-85 255 -171 443 -213 463 -10 5 -56 0 -106 -10z"/>
<path d="M1023 4439 c-30 -11 -31 -14 -49 -118 -3 -18 -8 -43 -10 -55 -11 -56
-26 -144 -29 -166 -2 -14 -6 -41 -10 -60 -15 -88 -27 -157 -30 -180 -3 -14
-10 -63 -15 -110 -6 -47 -13 -92 -15 -100 -2 -8 -7 -44 -10 -80 -3 -36 -8 -81
-10 -100 -15 -136 -23 -232 -40 -510 -8 -130 -21 -326 -30 -450 -3 -36 -7
-110 -10 -165 -4 -55 -8 -122 -10 -150 -14 -195 -19 -309 -18 -435 0 -157 11
-440 19 -480 3 -14 8 -157 11 -317 l6 -292 -24 -10 c-13 -5 -32 -18 -42 -29
-22 -24 -67 -151 -60 -169 5 -13 48 -29 103 -38 19 -3 53 -10 75 -15 40 -9
158 -29 205 -35 71 -10 127 -18 141 -20 16 -3 110 -10 264 -20 136 -8 260 -17
300 -21 122 -12 395 -12 460 1 117 22 120 24 145 107 36 117 36 132 6 146 -33
15 -129 39 -186 47 -25 3 -56 8 -70 10 -24 4 -53 7 -215 20 -38 3 -177 7 -309
10 -203 4 -382 12 -421 18 -21 4 -24 24 -19 107 4 73 11 132 40 330 7 44 92
558 98 585 2 11 7 40 10 65 3 25 8 56 10 70 8 44 26 173 31 220 26 241 27
1603 1 1830 -3 19 -7 73 -10 120 -19 269 -59 429 -109 431 -40 1 -122 9 -137
13 -9 1 -25 0 -37 -5z"/>
</g>
</svg>
