<?xml version="1.0" standalone="no"?>
<!DOCTYPE svg PUBLIC "-//W3C//DTD SVG 20010904//EN"
 "http://www.w3.org/TR/2001/REC-SVG-20010904/DTD/svg10.dtd">
<svg version="1.0" xmlns="http://www.w3.org/2000/svg"
 width="500.000000pt" height="500.000000pt" viewBox="0 0 500.000000 500.000000"
 preserveAspectRatio="xMidYMid meet">
<metadata>
Created by potrace 1.11, written by Peter Selinger 2001-2013
</metadata>
<g transform="translate(0.000000,500.000000) scale(0.100000,-0.100000)"
fill="#000000" stroke="none">
<path d="M2648 4945 c-2 -3 -43 -10 -89 -16 -121 -16 -133 -30 -126 -146 11
-181 18 -279 23 -313 2 -19 6 -62 8 -95 2 -33 9 -103 16 -155 6 -52 18 -151
26 -220 24 -211 65 -474 84 -545 7 -22 18 -76 25 -120 25 -149 44 -260 60
-340 8 -44 18 -100 21 -125 4 -25 10 -49 14 -55 5 -5 11 -37 15 -70 4 -33 13
-87 20 -120 7 -33 17 -89 21 -125 3 -36 10 -72 14 -80 4 -8 11 -44 15 -80 4
-36 10 -69 13 -74 3 -5 9 -26 13 -45 8 -37 28 -122 52 -226 8 -33 30 -107 49
-165 55 -164 78 -239 78 -255 0 -9 4 -23 9 -33 13 -26 51 -140 67 -202 8 -30
22 -80 30 -110 9 -30 22 -84 29 -120 17 -83 23 -107 30 -131 4 -12 2 -19 -7
-19 -8 0 -22 -15 -33 -32 -15 -26 -19 -53 -20 -133 l0 -100 140 1 c77 0 178 5
225 11 47 6 132 16 190 23 58 6 112 15 121 19 8 5 50 12 92 16 42 4 77 10 77
14 0 4 16 8 37 9 20 2 41 6 47 9 6 4 25 6 43 4 19 -1 33 2 33 8 0 6 17 11 38
11 21 0 42 3 46 7 4 5 42 13 84 20 162 25 258 43 274 53 10 5 24 10 33 10 8 0
29 8 47 18 18 10 45 22 61 26 39 9 124 63 132 84 3 9 9 58 12 107 8 138 -4
150 -139 148 -154 -3 -194 -6 -206 -16 -8 -6 -53 -17 -100 -23 -48 -7 -132
-22 -187 -33 -55 -11 -127 -25 -160 -31 -33 -6 -69 -16 -79 -22 -11 -5 -29
-12 -40 -14 -12 -2 -41 -8 -66 -14 -83 -21 -185 -39 -217 -40 -17 0 -35 -4
-38 -10 -3 -5 -16 -10 -29 -10 -18 0 -25 9 -35 42 -15 50 -31 142 -37 213 -2
28 -8 73 -14 100 -5 28 -15 127 -21 220 -6 94 -12 184 -14 200 -2 17 -8 102
-14 190 -6 88 -13 176 -16 195 -2 19 -9 71 -14 115 -5 44 -13 105 -16 135 -4
30 -11 75 -16 100 -6 25 -17 79 -25 120 -37 181 -43 208 -58 268 -9 35 -14 68
-10 73 3 5 0 9 -5 9 -6 0 -11 16 -11 35 0 19 -4 35 -8 35 -5 0 -13 26 -19 58
-26 128 -43 210 -59 265 -8 32 -17 66 -19 75 -2 9 -9 33 -15 52 -11 33 -18 60
-53 205 -16 64 -30 115 -73 260 -14 50 -32 117 -40 150 -14 56 -24 91 -44 140
-4 11 -31 90 -59 175 -64 192 -83 244 -90 250 -7 6 -48 91 -49 103 -2 9 -19
30 -52 62 -25 25 -33 29 -42 20z"/>
<path d="M1114 4603 c-23 -17 -35 -56 -50 -160 -15 -99 -25 -165 -54 -343 -6
-36 -12 -76 -14 -90 -2 -14 -6 -36 -9 -50 -14 -58 -43 -300 -57 -470 -5 -63
-14 -173 -20 -245 -6 -71 -15 -215 -21 -320 -17 -325 -20 -370 -25 -385 -6
-17 -9 -53 -25 -360 -16 -294 -16 -550 -1 -840 14 -277 21 -599 15 -678 -4
-42 -8 -52 -23 -52 -10 0 -22 -9 -25 -20 -3 -11 -11 -20 -16 -20 -5 0 -9 -7
-9 -15 0 -8 -4 -15 -8 -15 -4 0 -8 -8 -9 -17 -1 -10 -8 -36 -17 -58 -24 -64
-21 -88 17 -108 18 -10 41 -15 50 -11 10 3 17 1 17 -5 0 -6 15 -11 34 -11 18
0 46 -5 62 -10 26 -9 133 -26 314 -50 36 -5 91 -9 122 -9 31 -1 83 -8 115 -16
32 -9 94 -16 138 -16 44 0 150 -5 235 -10 446 -28 610 -9 647 75 13 28 43 156
43 182 0 12 -6 26 -13 32 -19 16 -129 43 -222 54 -44 5 -95 16 -114 24 -27 12
-123 17 -462 24 -285 7 -436 13 -453 21 -25 12 -25 12 -20 108 3 53 9 112 14
131 5 19 14 87 20 150 6 63 15 131 20 150 4 19 11 67 15 105 4 39 11 78 16 87
5 10 12 35 14 55 3 21 10 76 16 123 5 47 14 94 19 105 5 11 14 63 20 115 28
244 38 327 44 350 12 51 19 362 20 930 0 589 -5 789 -23 955 -6 50 -15 144
-20 210 -13 148 -29 265 -40 285 -5 9 -11 29 -15 45 -14 61 -24 66 -143 71
-59 3 -113 2 -119 -3z"/>
</g>
</svg>
