<?xml version="1.0" standalone="no"?>
<!DOCTYPE svg PUBLIC "-//W3C//DTD SVG 20010904//EN"
 "http://www.w3.org/TR/2001/REC-SVG-20010904/DTD/svg10.dtd">
<svg version="1.0" xmlns="http://www.w3.org/2000/svg"
 width="500.000000pt" height="500.000000pt" viewBox="0 0 500.000000 500.000000"
 preserveAspectRatio="xMidYMid meet">
<metadata>
Created by potrace 1.11, written by Peter Selinger 2001-2013
</metadata>
<g transform="translate(0.000000,500.000000) scale(0.100000,-0.100000)"
fill="#000000" stroke="none">
<path d="M1620 4673 c-86 -30 -146 -78 -183 -147 -19 -36 -22 -61 -25 -218
l-4 -178 689 0 688 0 1 163 c0 190 5 224 39 308 14 34 22 65 19 68 -7 7 -1203
12 -1224 4z"/>
<path d="M3234 4659 c-70 -27 -137 -99 -158 -170 -12 -38 -16 -96 -16 -206 l0
-153 826 0 826 0 -4 173 c-3 154 -5 177 -25 218 -30 60 -74 103 -136 133 l-52
25 -605 0 c-580 0 -607 -1 -656 -20z"/>
<path d="M1410 3098 l0 -756 -232 -173 c-128 -95 -237 -177 -243 -181 -5 -5
-77 -58 -160 -119 -222 -164 -319 -273 -392 -441 -177 -408 -13 -863 382
-1060 48 -24 128 -53 173 -63 12 -3 32 -8 45 -11 12 -3 69 -7 127 -9 94 -4
135 0 220 20 14 3 35 8 47 11 41 8 168 71 223 109 71 49 169 123 196 147 l21
18 -34 71 c-19 39 -37 83 -39 97 -3 15 -12 47 -19 72 -23 72 -27 107 -31 240
-3 136 10 232 50 360 37 115 104 250 160 321 12 14 35 43 51 64 62 81 150 154
475 397 184 138 340 256 345 263 7 8 10 253 10 696 l0 684 -687 0 -688 0 0
-757z"/>
<path d="M3064 3851 c-2 -2 -4 -343 -4 -757 l0 -752 -132 -98 c-73 -54 -135
-101 -138 -104 -3 -3 -30 -23 -60 -45 -30 -22 -57 -42 -60 -45 -3 -3 -57 -44
-120 -90 -63 -47 -122 -90 -130 -97 -8 -6 -51 -40 -95 -74 -85 -67 -176 -158
-197 -199 -7 -14 -15 -27 -19 -30 -16 -14 -57 -93 -82 -155 -34 -88 -58 -204
-60 -292 -1 -66 10 -190 18 -203 2 -4 7 -21 10 -39 3 -17 23 -68 45 -114 57
-118 68 -134 165 -232 39 -39 96 -88 127 -109 65 -43 193 -99 253 -111 22 -5
47 -10 55 -12 42 -12 222 -10 285 2 116 22 125 25 193 56 57 26 168 92 182
109 3 3 39 30 80 60 41 30 77 57 80 60 3 3 30 23 60 45 76 55 71 51 110 83 19
15 51 39 70 52 19 13 37 27 40 30 3 3 39 30 80 60 41 30 80 59 86 65 7 5 24
19 39 30 48 35 239 178 317 237 77 59 203 185 234 235 10 15 30 44 45 63 15
19 27 38 28 43 0 4 14 33 29 65 34 67 66 158 89 251 15 58 17 181 20 1041 l4
975 -821 0 c-452 0 -824 -2 -826 -4z"/>
</g>
</svg>
