<?xml version="1.0" encoding="UTF-8"?>
<!-- Generator: Adobe Illustrator 22.1.0, SVG Export Plug-In . SVG Version: 6.00 Build 0)  -->
<svg enable-background="new 0 0 1000 1000" version="1.1" viewBox="0 0 1e3 1e3" xml:space="preserve" xmlns="http://www.w3.org/2000/svg" xmlns:cc="http://creativecommons.org/ns#" xmlns:dc="http://purl.org/dc/elements/1.1/" xmlns:rdf="http://www.w3.org/1999/02/22-rdf-syntax-ns#"><metadata><rdf:RDF><cc:Work rdf:about=""><dc:format>image/svg+xml</dc:format><dc:type rdf:resource="http://purl.org/dc/dcmitype/StillImage"/><dc:title/></cc:Work></rdf:RDF></metadata>
<style type="text/css">
	.st0{fill:#58595B;}
</style>
		<path class="st0" d="m563 802.3c-12.9-0.8-26.8-3.2-39.6-6-3.4-1.1-6.8-0.7-6.4-2.7 1.1-3.4 3.2-13.9 7.5-13.6 2 0.1 1.3-3.1 1.4-3.9 1.8-28.3-3.9-59.2-2-88.4l5.9-90.2c1.9-28.6 7-58.2 12.3-86.6l2.1-1.6 14 0.9c11.2 12.8 8.9 141.4 7.4 164.3-1.6 24.9-15.4 86.7-14.2 104 17.1 2.3 34.7 1.1 51.9 2.2 12.3 0.8 24.9 1.6 36.4 5.8l1 1.8-3.7 13c-4 4.1-22.1 4.3-26.7 4l-47.3-3z"/>
		<path class="st0" d="m727.5 768.5c-12.7 2.4-26.8 3.6-39.8 4-3.5-0.2-6.8 1-6.9-1 0.2-3.5-0.4-14.2 3.9-15 2-0.4 0.5-3.3 0.4-4.2-5.3-27.9-18.5-56.3-24-85.1l-16.8-88.8c-5.3-28.2-7.8-58.1-9.7-86.9l1.7-2.1 13.8-2.6c14.1 9.6 43.9 134.7 48.1 157.3 4.6 24.5 6.7 87.8 12.1 104.3 17.1-2.1 33.9-7.6 50.8-10.8 12.1-2.3 24.5-4.6 36.7-3.4l1.4 1.5-0.4 13.5c-2.9 4.9-20.4 9.7-24.9 10.5l-46.4 8.8z"/>
		<path class="st0" d="M243.9,611.3V490.5h82.2v16.8h-62.7v36.1h52.5v15.8h-52.5v52.1H243.9z"/>
		<path class="st0" d="m430.6 594.9c6.5 0 11.9-1.2 16.2-3.7s7.7-5.8 10.3-9.8 4.5-8.6 5.6-13.8 1.7-10.5 1.7-15.9v-61.3h19.6v61.3c0 8.3-1 16.1-3 23.4s-5.1 13.7-9.4 19.2-9.8 9.8-16.6 13-14.9 4.8-24.4 4.8c-9.8 0-18.2-1.7-24.9-5-6.8-3.3-12.2-7.8-16.4-13.4s-7.2-12.1-9-19.3c-1.9-7.3-2.8-14.8-2.8-22.6v-61.3h19.5v61.3c0 5.6 0.5 10.9 1.6 16.1s3 9.8 5.6 13.8 6.1 7.3 10.4 9.7c4.3 2.3 9.7 3.5 16 3.5z"/>
		<path class="st0" d="m243.9 342.5v-120.9h51.8c5.6 0 10.7 1.1 15.4 3.4s8.7 5.2 12.1 8.9 6 7.9 7.9 12.6 2.9 9.5 2.9 14.4c0 5.1-0.9 10-2.7 14.7s-4.3 8.9-7.6 12.6c-3.2 3.7-7.2 6.6-11.7 8.8-4.6 2.2-9.6 3.3-15.2 3.3h-33.4v42h-19.5zm19.5-58.9h32.1c2.8 0 5.3-0.6 7.6-1.7s4.2-2.7 5.8-4.8c1.6-2 2.9-4.4 3.8-7.1s1.4-5.7 1.4-9c0-3.4-0.5-6.5-1.6-9.2-1-2.7-2.5-5.1-4.3-7.1-1.9-2-4-3.5-6.3-4.6-2.4-1.1-4.8-1.6-7.4-1.6h-31.1v45.1z"/>
		<path class="st0" d="m415.3 221.6h17l48.7 120.9h-20.5l-13-32.8h-47.6l-12.9 32.8h-20.7l49-120.9zm28.4 73.9-19.8-51.9-20.5 51.9h40.3z"/>
		<path class="st0" d="M531,342.5V221.6h19.5v120.8H531z"/>
		<path class="st0" d="m613 342.5v-120.9h53.7c5.6 0 10.7 1.1 15.4 3.4s8.7 5.2 12.1 8.9 6 7.9 7.9 12.6 2.9 9.5 2.9 14.4c0 4.1-0.6 8-1.7 11.7-1.2 3.7-2.8 7.2-4.9 10.4s-4.6 5.9-7.6 8.3c-3 2.3-6.3 4.1-9.9 5.2l29 45.9h-22.1l-26.8-42h-28.5v42h-19.5zm19.5-58.9h34c2.8 0 5.3-0.6 7.6-1.8s4.2-2.8 5.8-4.9 2.9-4.5 3.8-7.2 1.4-5.6 1.4-8.7-0.6-6-1.6-8.7c-1.1-2.7-2.5-5.1-4.3-7.1s-3.9-3.7-6.3-4.8c-2.4-1.2-4.8-1.8-7.4-1.8h-33v45z"/>
		<path class="st0" d="m243.8 475.1v-120.8h50.7c5.2 0 10 1.1 14.4 3.2 4.4 2.2 8.2 5 11.4 8.6s5.7 7.6 7.5 12.1 2.7 9 2.7 13.5c0 4.9-0.8 9.6-2.5 14.1s-4.1 8.6-7.1 12.1c-3.1 3.5-6.7 6.3-11 8.4s-9 3.1-14.2 3.1h-42.9v45.6h-9zm8.8-53.6h42.6c4.1 0 7.7-0.8 10.9-2.5 3.2-1.6 6-3.9 8.3-6.6 2.3-2.8 4-6 5.2-9.5 1.2-3.6 1.8-7.3 1.8-11.1 0-4-0.7-7.7-2.2-11.3-1.4-3.6-3.4-6.7-5.9-9.4s-5.4-4.9-8.7-6.5-6.8-2.4-10.5-2.4h-41.5v59.3z"/>
		<path class="st0" d="m419.9 354.3h7.6l52.1 120.8h-9.4l-17.2-39.8h-58.9l-17.1 39.8h-9.6l52.5-120.8zm30.8 73.8-26.9-63.3-27.4 63.3h54.3z"/>
		<path class="st0" d="m535.8 475.1v-120.8h8.9v120.8h-8.9z"/>
		<path class="st0" d="m613.1 475.1v-120.8h51.2c5.2 0 10 1.1 14.4 3.2 4.4 2.2 8.2 5 11.4 8.6s5.7 7.6 7.5 12.1 2.7 9 2.7 13.5c0 4.4-0.7 8.7-2.1 12.8s-3.4 7.9-5.9 11.1c-2.5 3.3-5.6 6-9.2 8.2s-7.5 3.6-11.8 4.3l30.7 47h-10.2l-29.9-45.6h-40v45.6h-8.8zm8.8-53.6h43.3c3.9 0 7.5-0.8 10.8-2.6 3.2-1.7 6-3.9 8.3-6.7s4.1-6 5.3-9.5c1.2-3.6 1.8-7.2 1.8-11 0-3.9-0.7-7.6-2.2-11.1-1.4-3.6-3.4-6.7-5.9-9.4s-5.4-4.9-8.7-6.6c-3.3-1.6-6.9-2.5-10.7-2.5h-42v59.4z"/>
		<path class="st0" d="m517.8 950c-240.3 0-435.8-195.5-435.8-435.8s195.5-435.8 435.8-435.8 435.8 195.5 435.8 435.8-195.5 435.8-435.8 435.8zm0-866.8c-237.7 0-431.1 193.4-431.1 431.1s193.4 431.1 431.1 431.1 431.1-193.4 431.1-431.1c-0.1-237.8-193.5-431.1-431.1-431.1z"/>
		<path class="st0" d="m482.2 921.6c-240.3 0-435.8-195.5-435.8-435.8s195.5-435.8 435.8-435.8 435.8 195.5 435.8 435.8-195.5 435.8-435.8 435.8zm0-866.9c-237.7 0-431.1 193.4-431.1 431.1s193.4 431.1 431.1 431.1 431.1-193.4 431.1-431.1-193.4-431.1-431.1-431.1z"/>
</svg>
