<?xml version="1.0" encoding="UTF-8"?>
<!-- Generator: Adobe Illustrator 22.1.0, SVG Export Plug-In . SVG Version: 6.00 Build 0)  -->
<svg enable-background="new 0 0 1920 500" version="1.1" viewBox="0 0 1920 500" xml:space="preserve" xmlns="http://www.w3.org/2000/svg" xmlns:cc="http://creativecommons.org/ns#" xmlns:dc="http://purl.org/dc/elements/1.1/" xmlns:rdf="http://www.w3.org/1999/02/22-rdf-syntax-ns#"><metadata><rdf:RDF><cc:Work rdf:about=""><dc:format>image/svg+xml</dc:format><dc:type rdf:resource="http://purl.org/dc/dcmitype/StillImage"/><dc:title/></cc:Work></rdf:RDF></metadata>
<style type="text/css">
	.st0{fill:#58595B;}
</style>
		<path class="st0" d="m1538.3 397c-12.1-0.8-25.2-3-37.3-5.7-3.2-1-6.4-0.7-6.1-2.6 1-3.2 3-13.1 7.1-12.8 1.9 0.1 1.3-2.9 1.3-3.7 1.7-26.7-3.7-55.7-1.9-83.2l5.5-84.9c1.8-27 6.6-54.8 11.5-81.5l2-1.5 13.2 0.9c10.6 12.1 8.4 133.2 7 154.7-1.5 23.4-14.5 81.6-13.4 97.9 16.1 2.1 32.7 1 48.9 2.1 11.6 0.8 23.4 1.5 34.3 5.5l1 1.7-3.5 12.2c-3.8 3.8-20.8 4.1-25.1 3.8l-44.5-2.9z"/>
		<path class="st0" d="m1693.2 365.2c-11.9 2.3-25.2 3.4-37.5 3.8-3.3-0.2-6.4 0.9-6.5-1 0.2-3.3-0.3-13.4 3.6-14.2 1.9-0.3 0.5-3.1 0.4-3.9-5-26.3-17.5-53-22.6-80.1l-15.8-83.6c-5-26.5-7.3-54.7-9.1-81.8l1.6-1.9 13-2.5c13.3 9 41.3 126.9 45.3 148.1 4.4 23.1 6.3 82.7 11.4 98.2 16.1-1.9 31.9-7.1 47.8-10.1 11.4-2.2 23.1-4.4 34.6-3.2l1.4 1.4-0.3 12.7c-2.7 4.6-19.2 9.1-23.4 9.9l-43.9 8.2z"/>
		<path class="st0" d="m159.3 312.2v-113.8h48.4c5.1 0 9.8 1 14.1 3.1s8 4.9 11.1 8.3c3.1 3.5 5.5 7.4 7.3 11.7 1.7 4.3 2.6 8.7 2.6 13.2 0 4.7-0.8 9.2-2.5 13.6-1.6 4.4-4 8.3-7 11.7s-6.6 6.1-10.8 8.2c-4.2 2-8.9 3-14 3h-34.5v40.9h-14.7zm14.7-53.7h33.9c3.1 0 5.8-0.6 8.3-1.8s4.6-2.9 6.3-5.1 3.1-4.7 4.1-7.6 1.5-5.9 1.5-9.1c0-3.3-0.6-6.4-1.7-9.3s-2.7-5.4-4.6-7.5-4.1-3.8-6.7-5-5.3-1.8-8.1-1.8h-33v47.2z"/>
		<path class="st0" d="m320.7 198.4h12.4l47.4 113.8h-15.7l-13.7-33.3h-48.7l-13.6 33.3h-15.7l47.6-113.8zm27.2 69.2-20.9-52.6-21.6 52.6h42.5z"/>
		<path class="st0" d="M428.7,312.2V198.4h14.7v113.8H428.7z"/>
		<path class="st0" d="m503.7 312.2v-113.8h49.7c5.1 0 9.8 1 14.1 3.1s8 4.9 11.1 8.3c3.1 3.5 5.5 7.4 7.3 11.7 1.7 4.3 2.6 8.7 2.6 13.2 0 4-0.6 7.8-1.7 11.5s-2.8 7-4.9 10-4.7 5.6-7.7 7.7-6.4 3.7-10.1 4.6l28.1 43.6h-16.7l-26.5-40.9h-30.8v40.9h-14.5zm14.7-53.7h35.2c3.1 0 5.8-0.6 8.3-1.9s4.5-3 6.3-5.2c1.7-2.2 3.1-4.7 4.1-7.6s1.5-5.9 1.5-9c0-3.2-0.6-6.2-1.7-9.1-1.1-2.8-2.7-5.3-4.6-7.5s-4.1-3.9-6.7-5.1-5.3-1.8-8.1-1.8h-34.2v47.2z"/>
		<path class="st0" d="m684.5 312.2v-113.8h47.8c4.9 0 9.4 1 13.6 3 4.1 2 7.7 4.7 10.7 8.1s5.3 7.2 7 11.4 2.5 8.5 2.5 12.7c0 4.6-0.8 9-2.4 13.3s-3.8 8.1-6.7 11.4-6.4 6-10.4 7.9c-4 2-8.5 3-13.4 3h-40.4v42.9h-8.3zm8.3-50.5h40.1c3.8 0 7.3-0.8 10.3-2.3 3.1-1.5 5.6-3.6 7.8-6.3 2.1-2.6 3.8-5.6 4.9-9s1.7-6.9 1.7-10.5c0-3.7-0.7-7.3-2-10.7-1.4-3.4-3.2-6.3-5.6-8.9-2.3-2.6-5.1-4.6-8.2-6.1s-6.4-2.2-9.9-2.2h-39.1v56z"/>
		<path class="st0" d="m847.7 198.4h7.2l49.1 113.8h-8.8l-16.2-37.5h-55.5l-16.2 37.5h-9l49.4-113.8zm29 69.5-25.4-59.6-25.8 59.6h51.2z"/>
		<path class="st0" d="m954.2 312.2v-113.8h8.3v113.8h-8.3z"/>
		<path class="st0" d="m1025.5 312.2v-113.8h48.3c4.9 0 9.4 1 13.6 3 4.1 2 7.7 4.7 10.7 8.1s5.3 7.2 7 11.4 2.5 8.5 2.5 12.7-0.7 8.2-2 12.1-3.2 7.4-5.6 10.5-5.3 5.7-8.7 7.7-7.1 3.4-11.1 4l29 44.2h-9.7l-28.1-42.9h-37.6v42.9h-8.3zm8.3-50.5h40.7c3.7 0 7.1-0.8 10.1-2.4 3.1-1.6 5.7-3.7 7.9-6.3s3.8-5.6 5-9c1.1-3.4 1.7-6.8 1.7-10.3 0-3.6-0.7-7.1-2-10.5-1.4-3.4-3.2-6.3-5.6-8.9-2.3-2.6-5.1-4.6-8.2-6.2-3.1-1.5-6.5-2.3-10.1-2.3h-39.6v55.9z"/>
		<path class="st0" d="M1202.3,312.2V198.4h76.7v12.8h-62v38h52.2v12H1217v50.9H1202.3z"/>
		<path class="st0" d="m1378 300c6.8 0 12.4-1.3 16.8-3.8 4.5-2.6 8-5.9 10.7-10s4.6-8.8 5.6-14.1c1.1-5.3 1.6-10.7 1.6-16.1v-57.5h14.7v57.5c0 7.7-0.9 15-2.7 21.9s-4.7 12.9-8.6 18.2c-3.9 5.2-9 9.4-15.3 12.4s-13.9 4.6-22.8 4.6c-9.3 0-17.1-1.6-23.4-4.8s-11.4-7.4-15.3-12.7-6.7-11.4-8.3-18.3c-1.7-6.9-2.5-14-2.5-21.2v-57.5h14.7v57.5c0 5.7 0.6 11.1 1.7 16.4s3.1 10 5.7 14c2.7 4.1 6.2 7.3 10.6 9.9 4.6 2.3 10.1 3.6 16.8 3.6z"/>
</svg>
