<?xml version="1.0" encoding="utf-8"?>
<!-- Generator: Adobe Illustrator 22.1.0, SVG Export Plug-In . SVG Version: 6.00 Build 0)  -->
<svg version="1.1" id="Layer_1" xmlns="http://www.w3.org/2000/svg" xmlns:xlink="http://www.w3.org/1999/xlink" x="0px" y="0px"
	 viewBox="0 0 2289 595.3" style="enable-background:new 0 0 2289 595.3;" xml:space="preserve">
<style type="text/css">
	.st0{fill:#59595C;}
</style>
<g>
	<g>
		<path class="st0" d="M1988.8,425c-10.8-0.7-22.6-2.7-33.3-5.1c-2.8-0.9-5.8-0.6-5.4-2.3c0.9-2.8,2.7-11.7,6.3-11.4
			c1.7,0.1,1.1-2.6,1.2-3.3c1.6-23.9-3.3-49.8-1.7-74.4l4.9-75.9c1.6-24.1,5.9-49,10.3-72.9l1.8-1.3l11.8,0.8
			c9.5,10.8,7.5,119.1,6.2,138.3c-1.4,21-13,73-12,87.5c14.4,1.9,29.2,0.9,43.7,1.9c10.4,0.7,21,1.4,30.7,4.9l0.9,1.5l-3.1,10.9
			c-3.4,3.4-18.6,3.6-22.5,3.4L1988.8,425z"/>
	</g>
	<g>
		<path class="st0" d="M2127.2,396.6c-10.7,2-22.5,3-33.5,3.4c-3-0.2-5.7,0.8-5.8-0.9c0.2-3-0.3-12,3.3-12.7
			c1.7-0.3,0.5-2.8,0.3-3.5c-4.4-23.5-15.6-47.4-20.2-71.6l-14.1-74.7c-4.5-23.7-6.5-48.9-8.2-73.2l1.4-1.7l11.6-2.2
			c11.8,8.1,36.9,113.4,40.5,132.4c3.9,20.6,5.6,73.9,10.2,87.8c14.4-1.7,28.5-6.4,42.8-9.1c10.2-1.9,20.6-3.9,30.9-2.9l1.2,1.2
			l-0.3,11.4c-2.4,4.1-17.1,8.2-20.9,8.9L2127.2,396.6z"/>
	</g>
	<g>
		<path class="st0" d="M755.9,349.1V247.4h43.3c4.6,0,8.8,0.9,12.6,2.8c3.8,1.9,7.2,4.3,9.9,7.5c2.8,3.1,4.9,6.6,6.5,10.5
			c1.6,3.9,2.3,7.8,2.3,11.8c0,4.2-0.7,8.3-2.2,12.2c-1.5,3.9-3.5,7.4-6.2,10.5c-2.7,3.1-5.9,5.5-9.7,7.3c-3.8,1.8-7.9,2.7-12.5,2.7
			h-31v36.5H755.9z M769.1,301.1h30.3c2.7,0,5.2-0.5,7.4-1.6c2.2-1.1,4.1-2.6,5.6-4.6c1.6-2,2.8-4.2,3.7-6.8
			c0.9-2.6,1.3-5.3,1.3-8.2c0-3-0.5-5.7-1.5-8.3c-1-2.6-2.4-4.8-4.1-6.7c-1.7-1.9-3.7-3.4-6-4.4c-2.3-1-4.7-1.6-7.2-1.6h-29.4V301.1
			z"/>
		<path class="st0" d="M900.2,247.4h11.1l42.4,101.7h-14l-12.3-29.8h-43.6l-12.1,29.8h-14L900.2,247.4z M924.5,309.3l-18.7-47
			l-19.3,47H924.5z"/>
		<path class="st0" d="M996.7,349.1V247.4h13.2v101.7H996.7z"/>
		<path class="st0" d="M1063.9,349.1V247.4h44.5c4.6,0,8.8,0.9,12.7,2.8c3.9,1.9,7.2,4.3,9.9,7.5c2.8,3.1,4.9,6.6,6.5,10.5
			c1.6,3.9,2.3,7.8,2.3,11.8c0,3.5-0.5,6.9-1.5,10.2c-1,3.3-2.5,6.3-4.4,9c-1.9,2.7-4.2,5-6.9,6.9c-2.7,1.9-5.7,3.3-9,4.2l25.2,39
			h-14.9l-23.7-36.5H1077v36.5H1063.9z M1077,301.1h31.4c2.7,0,5.2-0.6,7.4-1.7c2.2-1.1,4.1-2.7,5.6-4.7c1.6-2,2.8-4.2,3.7-6.8
			c0.9-2.6,1.3-5.2,1.3-8c0-2.9-0.5-5.6-1.5-8.1c-1-2.5-2.4-4.8-4.1-6.7c-1.7-2-3.7-3.5-6-4.6c-2.3-1.1-4.7-1.6-7.2-1.6H1077V301.1z
			"/>
		<path class="st0" d="M1225.4,349.1V247.4h42.7c4.4,0,8.4,0.9,12.1,2.7c3.7,1.8,6.9,4.2,9.6,7.2c2.7,3,4.8,6.4,6.3,10.2
			c1.5,3.8,2.3,7.6,2.3,11.4c0,4.1-0.7,8.1-2.1,11.9c-1.4,3.8-3.4,7.2-6,10.2c-2.6,3-5.7,5.3-9.3,7.1c-3.6,1.8-7.6,2.6-12,2.6h-36.1
			v38.4H1225.4z M1232.9,304h35.8c3.4,0,6.5-0.7,9.2-2.1c2.7-1.4,5-3.2,6.9-5.6c1.9-2.3,3.4-5,4.4-8c1-3,1.5-6.1,1.5-9.4
			c0-3.3-0.6-6.5-1.8-9.5c-1.2-3-2.9-5.7-5-7.9c-2.1-2.3-4.5-4.1-7.3-5.4c-2.8-1.3-5.7-2-8.8-2h-34.9V304z"/>
		<path class="st0" d="M1371.4,247.4h6.4l43.9,101.7h-7.9l-14.5-33.5h-49.6l-14.5,33.5h-8L1371.4,247.4z M1397.3,309.6l-22.7-53.3
			l-23.1,53.3H1397.3z"/>
		<path class="st0" d="M1466.6,349.1V247.4h7.5v101.7H1466.6z"/>
		<path class="st0" d="M1530.3,349.1V247.4h43.1c4.4,0,8.4,0.9,12.1,2.7c3.7,1.8,6.9,4.2,9.6,7.2c2.7,3,4.8,6.4,6.3,10.2
			c1.5,3.8,2.3,7.6,2.3,11.4c0,3.7-0.6,7.3-1.8,10.8c-1.2,3.5-2.8,6.6-5,9.4c-2.1,2.8-4.7,5.1-7.8,6.9c-3,1.8-6.3,3-9.9,3.6
			l25.9,39.5h-8.6l-25.2-38.4h-33.6v38.4H1530.3z M1537.8,304h36.4c3.3,0,6.3-0.7,9.1-2.2c2.7-1.4,5.1-3.3,7-5.7
			c1.9-2.3,3.4-5,4.5-8c1-3,1.5-6.1,1.5-9.2c0-3.2-0.6-6.4-1.8-9.4c-1.2-3-2.9-5.7-5-7.9c-2.1-2.3-4.5-4.1-7.3-5.5
			c-2.8-1.4-5.8-2.1-9-2.1h-35.4V304z"/>
		<path class="st0" d="M1688.4,349.1V247.4h68.6v11.5h-55.4v33.9h46.6v10.7h-46.6v45.5H1688.4z"/>
		<path class="st0" d="M1845.5,338.2c6,0,11.1-1.1,15.1-3.4c4-2.3,7.2-5.3,9.6-9c2.4-3.7,4.1-7.9,5-12.6c1-4.7,1.5-9.5,1.5-14.4
			v-51.4h13.2v51.4c0,6.9-0.8,13.4-2.4,19.6c-1.6,6.2-4.2,11.6-7.7,16.3c-3.5,4.7-8.1,8.4-13.7,11.1c-5.6,2.7-12.4,4.1-20.4,4.1
			c-8.3,0-15.3-1.4-20.9-4.3c-5.7-2.9-10.2-6.7-13.7-11.4c-3.5-4.7-5.9-10.2-7.5-16.3c-1.5-6.2-2.3-12.5-2.3-19v-51.4h13.2v51.4
			c0,5.1,0.5,10,1.5,14.7c1,4.7,2.7,8.9,5.1,12.5c2.4,3.6,5.6,6.6,9.5,8.8C1834.6,337.1,1839.5,338.2,1845.5,338.2z"/>
	</g>
</g>
<g>
	<path class="st0" d="M380.5,441c-5.3,0-13.1-3-26.6-11.7c-33.6-21.4-46.4-34.6-61.1-75.6c-5.3-14.7-4.7-16.5,1.5-20.9
		c1.5-1.1,3.4-2.5,5.6-4.5l0.1-0.1c9.3-8.7,14.9-14,20.8-23.6c5.5-8.9,5.4-17.3,3.2-29.9c-3.9-22.8,0.3-38.2,0.4-38.9
		c0.1-0.4,0.3-0.7,0.7-0.9c0.3-0.2,8.3-4.8,16.8-3.8c2.2,0.3,4.6,0.4,6.9,0.6c6.5,0.5,12.2,0.9,14.7,3.4c0.6,0.6,0.6,1.5,0,2.1
		c-0.6,0.6-1.5,0.6-2.1,0c-1.8-1.8-7.4-2.2-12.8-2.5c-2.4-0.2-4.8-0.3-7.1-0.6c-6.3-0.8-12.6,2.2-14.4,3.1c-0.7,3-3.6,17.3-0.2,36.9
		c1.9,10.8,3,21.3-3.6,31.9c-6.1,9.9-12.1,15.6-21.3,24.2l-0.1,0.1c-2.3,2.2-4.3,3.6-5.9,4.8c-4.7,3.4-5.3,3.8-0.4,17.4
		c14.6,40.4,26.5,52.7,59.9,74c24.3,15.7,27.9,12.1,33.7,6.2c0.7-0.7,1.5-1.5,2.3-2.2c1.6-1.4,3-2.9,4.5-4.5c0.5-0.5,1-1.1,1.5-1.6
		c14.1-15.3,30.2-33.3,42.6-52.7l0.6-0.9c13-20.3,17-26.4,27.8-33.3c3.1-2,7.1-4.3,11.3-6.8c14.1-8.3,35.4-20.9,35.4-27
		c0-2.8-5.7-5.9-11.3-8.8c-3.7-1.9-7.5-3.9-10.7-6.3c-8.7-6.5-21.8-18.3-21.9-18.4c-0.6-0.6-0.7-1.5-0.1-2.1
		c0.6-0.6,1.5-0.7,2.1-0.1c0.1,0.1,13.1,11.8,21.7,18.2c3,2.2,6.7,4.2,10.3,6c7,3.7,13,6.8,12.9,11.5c0,7.2-16,17.2-36.9,29.6
		c-4.2,2.5-8.2,4.8-11.2,6.8c-10.3,6.5-13.8,12-26.9,32.3l-0.6,0.9c-12.5,19.6-28.7,37.7-43,53.1c-0.5,0.5-1,1.1-1.5,1.6
		c-1.5,1.6-3,3.3-4.7,4.7c-0.7,0.7-1.4,1.4-2.1,2.1C388.3,438.2,385.6,441,380.5,441z"/>
</g>
<g>
	<path class="st0" d="M236.9,358.8c-1.8,0-5.8-0.1-12-0.8c-0.8-0.1-1.4-0.8-1.3-1.7c0.1-0.8,0.8-1.4,1.7-1.3
		c8.4,1,12.6,0.8,12.7,0.8c0.8,0,1.5,0.6,1.6,1.4c0,0.8-0.6,1.5-1.4,1.6C238,358.8,237.6,358.8,236.9,358.8z"/>
</g>
<g>
	<path class="st0" d="M90,466.9c-2.6,0-4.3-0.1-5.1-0.2c-2.6-0.4-4.7-1.9-6-4.2c-2.8-5-1.5-13.2,0.3-17.5c0.8-2,2.2-3.5,3.5-5
		l0.4-0.4c5.5-6.1,12.1-6.1,15.6-6.1c0.5,0,1,0,1.4,0c2.8-0.2,5.3-0.2,7.5-0.2c8.9,0.1,13.8,0.2,20.7-16.5
		c3.2-7.8,8.7-22.3,13.5-35.1c3.2-8.6,6.2-16.7,8.3-21.9c0.2-1.2,1.3-6.9,6.6-10.4c4.7-3.1,11.2-3.5,19.3-1.1c0.8,0.2,1.2,1.1,1,1.9
		c-0.2,0.8-1.1,1.2-1.9,1c-7.2-2.1-12.9-1.9-16.8,0.7c-4.7,3.1-5.3,8.4-5.3,8.5c0,0.1,0,0.3-0.1,0.4c-2,5.2-5.1,13.4-8.3,22
		c-4.8,12.8-10.2,27.4-13.5,35.2c-7.6,18.6-13.9,18.5-23.5,18.4c-2.2,0-4.6-0.1-7.2,0.1c-0.4,0-1,0-1.6,0c-3.3,0-8.8,0-13.4,5.1
		l-0.3,0.4c-1.2,1.4-2.4,2.7-3,4.2c-1.5,3.6-2.7,10.9-0.4,14.9c0.9,1.5,2.1,2.4,3.9,2.7c2.4,0.4,17.4-0.1,30.6-0.5
		c11-0.4,22.4-0.7,27.8-0.6c0.1,0,0.3,0,0.4,0c18.3,0,24.6-26,29.1-45.1c2.2-9.2,4-16.5,6.6-20c0.5-0.7,1.4-0.8,2.1-0.3
		c0.7,0.5,0.8,1.4,0.3,2.1c-2.3,3-4,10.3-6.1,18.9c-4.8,20-11.4,47.4-32,47.4c-0.2,0-0.3,0-0.5,0c-5.3-0.1-16.7,0.3-27.6,0.6
		C104.4,466.6,95.4,466.9,90,466.9z"/>
</g>
<g>
	<path class="st0" d="M250.5,477.8c-7.4,0-14.9-0.1-22.5-0.3c-0.5,0-1-0.3-1.3-0.7c-0.3-0.4-0.3-1,0-1.5
		c25.8-48.8,18.9-86.8,18.1-90.6c-0.1-0.2-0.2-0.5-0.2-0.8c0-30.1-17.7-32.7-18.5-32.8c-0.8-0.1-1.4-0.8-1.3-1.6
		c0-0.8,0.7-1.4,1.5-1.4c0.2,0,17.1-0.2,36.6-2.7c19.5-2.4,27.6-4.5,27.7-4.6c0.8-0.2,1.6,0.3,1.8,1c0.2,0.8-0.2,1.6-1,1.8
		c-0.3,0.1-8.3,2.3-28.1,4.6c-12,1.5-23.1,2.2-29.9,2.5c6,3.7,13.9,12.3,14.2,31.8c2.8,0.5,5.5,0.8,8.1,1.2
		c11.4,1.6,20.4,2.9,32.4,10.2c0.6,0.4,0.9,1.2,0.6,1.9s-1.1,1.1-1.8,0.9l-38.8-10.7c1.5,9.3,4.9,44.5-17.7,88.5
		c47,1.1,91.2-1.7,108-6.9c10.7-3.3,17.7-8.9,22.8-13c2.8-2.2,4.9-4,7-4.9c4-1.8,7.6-5.5,10.9-11c0.4-0.7,1.3-0.9,2.1-0.5
		c0.7,0.4,0.9,1.3,0.5,2.1c-3.6,6.1-7.7,10.2-12.3,12.2c-1.8,0.8-3.9,2.5-6.4,4.5c-5.3,4.3-12.5,10.1-23.8,13.6
		C324.7,475,289.9,477.8,250.5,477.8z"/>
</g>
<g>
	<path class="st0" d="M396.7,240c-0.1,0-0.1,0-0.2,0c-6.5-0.9-9.6-4.9-8.9-11.4c0.7-6.5,14.2-19.5,15.8-20.9
		c0.6-0.6,1.5-0.5,2.1,0.1c0.6,0.6,0.5,1.5-0.1,2.1c-4,3.8-14.3,14.5-14.8,19.1c-0.6,4.9,1.4,7.4,6.3,8c0.8,0.1,1.4,0.9,1.3,1.7
		C398.1,239.5,397.4,240,396.7,240z"/>
</g>
<g>
	<path class="st0" d="M401.6,203.7c-0.9,0-1.9-0.2-2.9-0.7c-4.5-2.2-4.2-7.6-3.4-10.2c0.2-0.8,1.1-1.2,1.9-1c0.8,0.2,1.2,1.1,1,1.9
		l0,0c-0.1,0.2-1.5,5,1.8,6.6c3.2,1.5,5.9-2.1,5.9-2.1c0.5-0.7,1.4-0.8,2.1-0.3c0.7,0.5,0.8,1.4,0.3,2.1
		C407.2,201.5,404.7,203.7,401.6,203.7z"/>
</g>
<g>
	<path class="st0" d="M430.8,213.3c-0.4,0-0.8,0-1.2-0.1c-4.7-0.8-6.1-5.7-6.1-8.1c0-0.8,0.6-1.5,1.5-1.5c0.8,0,1.5,0.6,1.5,1.5
		c0,0.2,0.2,4.7,3.6,5.2c3.6,0.7,5.3-4.1,5.3-4.3c0.3-0.8,1.1-1.2,1.9-0.9c0.8,0.3,1.2,1.1,0.9,1.9
		C437.4,209.2,434.9,213.3,430.8,213.3z"/>
</g>
<g>
	<path class="st0" d="M400.8,138c16.7-14.5,47.2-20.9,68.2-13.4c8.4,3,13,8.7,17.9,15.7c1.4,2,6.1,3.1,8.2,4.7
		c3.7,3,6.2,7.1,8.2,11.4c9.1,20.4,5.3,41.2-2.8,61.1c0,0-14.2-8.3-20.4,2.4c-3.2,5.5-3.2,9.3-7.6,20.9c-4.5,3-8.3,3.9-11,4.1
		c1-5.6,5.3-12.2,8.1-28.9c1.4-8.1-16-22.7-6.8-49c-4.3,1.4-32.6,9-53.6,7.2c4.3-7.3,15.3-11.8,15.3-11.8s-24.2,5.4-35.5,4.6
		c-5.5-0.4-15.3-0.9-20.4-7.5c-7.7-10.1-0.9-21.6,7.7-28.3c-1.2,3.8-1.9,8.6,0.1,12.2c1.9,3.5,6.2,5.2,10.2,4.6
		C392.8,147.2,396.4,141.8,400.8,138z"/>
</g>
<g>
	<path class="st0" d="M401.5,309.1c-11.1,0-21.6-3.1-30.8-9.3c-6.4-4.3-10.3-9.7-12.6-17.5c-0.1-0.6-0.8-4.4-1.5-8
		c-0.6-3.2-0.9-5.1-1-6.4c-3.6-0.4-8.3-1.9-8.6-6.1c-0.2-3.6,3-6,5.6-7.3c-2-1.2-4.4-3-5.3-5.5c-0.6-1.7-0.4-3.4,0.5-5
		c0.9-1.6,2.3-2.6,4.1-3.1c3.5-0.9,7.8,0.8,10,1.8c0.9-1.7,1.7-3.4,2.6-5.1c6.8-13.4,13.9-27.2,18.9-41.6c1.4-3.9,2.5-8,3.7-12
		c2.4-8.2,4.8-16.7,9.1-24.3c10.7-18.6,28-24.8,29.8-25.3c1.6-0.8,17.2-8.6,27-7.9c10.9,0.8,36.4,12.9,45.6,30.3
		c6.4,12.1,2.3,35-2.1,55.7c4.5,3.2,7.3,8.6,7.3,14.3c0,8.4-6.1,15.7-14.4,17.2c-0.1,0.1-0.1,0.2-0.3,0.4c-3.4,4.3-6.4,9.1-9.4,13.7
		c-3.8,6-7.8,12.2-12.6,17.6c-7,7.7-16.3,15.2-27,21.7C427.2,305.1,414,309.1,401.5,309.1z M358.5,266.7c0.1,1.8,2.2,13.3,2.5,14.7
		c2,7,5.6,11.9,11.4,15.8c18.7,12.5,42.9,11.6,66.2-2.5c10.5-6.3,19.6-13.6,26.4-21.1c4.7-5.2,8.6-11.3,12.3-17.2
		c2.9-4.6,6-9.4,9.4-13.7c0,0,0,0,0-0.1c0-0.8,0.6-1.4,1.3-1.5c7.3-0.9,12.9-7.1,12.9-14.4c0-5-2.6-9.7-6.8-12.3
		c-0.5-0.3-0.8-1-0.7-1.6c4.8-22,8.4-43.9,2.6-54.7c-8.6-16.3-33.2-28-43.2-28.7c-9.3-0.7-25.3,7.6-25.5,7.6c-0.1,0-0.2,0.1-0.2,0.1
		c-0.2,0.1-17.8,5.9-28.3,24c-4.1,7.2-6.5,15.6-8.8,23.6c-1.2,4-2.3,8.1-3.7,12.1c-5,14.6-12.1,28.5-19,42c-1.1,2.1-2.2,4.3-3.3,6.4
		c-0.2,0.4-0.5,0.6-0.9,0.8c-0.4,0.1-0.8,0.1-1.2-0.1c-1.5-0.9-6.1-3-9.1-2.2c-1,0.3-1.7,0.8-2.2,1.7c-0.5,0.9-0.6,1.7-0.3,2.5
		c0.9,2.6,5.1,4.6,6.6,5.2c0.6,0.2,1,0.8,1,1.5c0,0.6-0.5,1.2-1.1,1.4c-1.8,0.5-6.9,2.7-6.7,5.6c0.2,2.7,5.3,3.4,7,3.4
		c0.8,0,1.5,0.7,1.5,1.5C358.5,266.5,358.5,266.6,358.5,266.7z M357,267.9C357,267.9,357,267.9,357,267.9
		C357,267.9,357,267.9,357,267.9z M357,267.9C357,267.9,357,267.9,357,267.9C357,267.9,357,267.9,357,267.9z M357.3,267.9
		c-0.1,0-0.2,0-0.3,0C357.1,267.9,357.2,267.9,357.3,267.9z M486.6,243L486.6,243L486.6,243z M486.9,242.2
		C486.9,242.2,486.9,242.2,486.9,242.2C486.9,242.2,486.9,242.2,486.9,242.2z"/>
</g>
<g>
	<path class="st0" d="M492.2,230.7c0,0-0.1,0-0.1,0c-2.2-0.2-6.5-2.1-6.5-7.7c0-0.8,0.7-1.5,1.5-1.5s1.5,0.7,1.5,1.5
		c0,4.3,3.6,4.7,3.7,4.7c0.8,0.1,1.4,0.8,1.3,1.6C493.6,230.1,493,230.7,492.2,230.7z"/>
</g>
<g>
	<path class="st0" d="M484.6,234.2c-0.1,0-0.3,0-0.4-0.1c-0.8-0.2-1.2-1.1-1-1.9c0.2-0.6,1.8-5.5,5.7-5.8c0.8-0.1,1.5,0.6,1.6,1.4
		c0.1,0.8-0.6,1.5-1.4,1.6c-1.6,0.1-2.8,2.7-3.1,3.7C485.8,233.8,485.2,234.2,484.6,234.2z"/>
</g>
<g>
	<path class="st0" d="M484.8,278c-0.4,0-0.7-0.1-1-0.4c-0.6-0.6-0.7-1.5-0.1-2.1c0.2-0.2,16.9-18.8,13.5-38.4
		c-0.1-0.8,0.4-1.6,1.2-1.7c0.8-0.1,1.6,0.4,1.7,1.2c1.5,8.8-0.5,18.6-5.8,28.5c-4,7.4-8.3,12.2-8.5,12.4
		C485.6,277.8,485.2,278,484.8,278z"/>
</g>
<g>
	<path class="st0" d="M512.1,298c-0.3,0-0.6-0.1-0.9-0.3c-0.7-0.5-0.8-1.4-0.3-2.1c0.3-0.4,27-37.3,20.4-69.2
		c-2.7-13.3-10.9-24-24.3-31.8c-0.7-0.4-1-1.3-0.5-2.1c0.4-0.7,1.3-1,2.1-0.5c14.1,8.3,22.8,19.6,25.7,33.8c2,9.6,2.2,25.8-7.9,48.5
		c-6,13.5-12.8,22.7-13.1,23.1C513,297.8,512.6,298,512.1,298z"/>
</g>
<g>
	<path class="st0" d="M362.8,237.8c-0.8,0-1.5-0.7-1.5-1.5c0-1.2,0.3-28.9,22.5-44.2c0.7-0.5,1.6-0.3,2.1,0.4
		c0.5,0.7,0.3,1.6-0.4,2.1c-21,14.5-21.3,41.5-21.3,41.8C364.3,237.1,363.6,237.8,362.8,237.8z"/>
</g>
<g>
	<path class="st0" d="M334.6,234.2c-0.1,0-0.2,0-0.3,0c-0.8-0.2-1.3-1-1.2-1.8c0-0.2,4.1-18.7,13.4-36.1
		c12.6-23.3,29.2-34.1,47.9-31c0.8,0.1,1.4,0.9,1.2,1.7c-0.1,0.8-0.9,1.4-1.7,1.2c-42.1-6.9-57.7,64-57.9,64.7
		C335.9,233.7,335.3,234.2,334.6,234.2z"/>
</g>
<g>
	<path class="st0" d="M431.8,478.8c-18.5,0-35-0.1-42.9-0.4c-24-0.9-34.3-16.1-34.7-16.8c-0.5-0.7-0.3-1.6,0.4-2.1
		c0.7-0.5,1.6-0.3,2.1,0.4l0,0c0,0,2.5,3.7,7.7,7.4c4.8,3.4,12.9,7.6,24.6,8c22.6,0.9,118.1,0.1,124.4,0
		c2.6-1.2,23.1-11.2,42.6-30.3c11.7-11.4,25.8-30.9,36.1-49.5c16.5-29.8,18.2-47.7,16.9-57.5c-9.9-69.4-24.3-110.5-42.6-122
		c-9.3-5.9-14.7-10.5-19.5-14.7c-8.9-7.7-14.7-12.7-38.2-18.4c-0.8-0.2-1.3-1-1.1-1.8c0.2-0.8,1-1.3,1.8-1.1
		c24.2,5.9,30.6,11.4,39.5,19.1c4.7,4.1,10,8.7,19.2,14.4c19.1,12,33.9,53.8,44,124.2c2.6,18.5-7.9,42.5-17.2,59.4
		c-10.4,18.9-24.8,38.6-36.6,50.2c-21.1,20.7-43.5,30.9-43.7,31c-0.2,0.1-0.4,0.1-0.6,0.1C513.1,478.4,468.5,478.8,431.8,478.8z"/>
</g>
<g>
	<path class="st0" d="M466.7,398.5c-0.4,0-0.8-0.2-1.1-0.5c-0.6-0.6-0.5-1.5,0.1-2.1c1.4-1.3,34.8-33.1,46.9-36.8
		c11.4-3.5,35.3-35.5,35.5-35.9c0.5-0.7,1.4-0.8,2.1-0.3c0.7,0.5,0.8,1.4,0.3,2.1c-1,1.4-24.7,33.1-37.1,36.9
		c-11.4,3.5-45.4,35.7-45.7,36.1C467.4,398.4,467.1,398.5,466.7,398.5z"/>
</g>
<g>
	<g>
		<path class="st0" d="M138.7,348.9c1.1,1.3,0.9,3.2-0.4,4.3c-1.3,1.1-3.2,0.9-4.3-0.4s-0.9-3.2,0.4-4.3
			C135.6,347.4,137.6,347.6,138.7,348.9z"/>
	</g>
	<g>
		<path class="st0" d="M138.1,362.4c1.1,1.3,0.9,3.2-0.4,4.3c-1.3,1.1-3.2,0.9-4.3-0.4s-0.9-3.2,0.4-4.3
			C135.1,361,137,361.1,138.1,362.4z"/>
	</g>
	<g>
		<path class="st0" d="M137.5,376c1.1,1.3,0.9,3.2-0.4,4.3c-1.3,1.1-3.2,0.9-4.3-0.4c-1.1-1.3-0.9-3.2,0.4-4.3
			C134.5,374.5,136.4,374.7,137.5,376z"/>
	</g>
	<g>
		<path class="st0" d="M149.6,366.5c1.1,1.3,0.9,3.2-0.4,4.3c-1.3,1.1-3.2,0.9-4.3-0.4s-0.9-3.2,0.4-4.3
			C146.6,365,148.5,365.2,149.6,366.5z"/>
	</g>
	<g>
		<path class="st0" d="M127.5,358.4c1.1,1.3,0.9,3.2-0.4,4.3c-1.3,1.1-3.2,0.9-4.3-0.4c-1.1-1.3-0.9-3.2,0.4-4.3
			C124.5,356.9,126.4,357.1,127.5,358.4z"/>
	</g>
	<g>
		<path class="st0" d="M126.9,371.9c1.1,1.3,0.9,3.2-0.4,4.3c-1.3,1.1-3.2,0.9-4.3-0.4c-1.1-1.3-0.9-3.2,0.4-4.3
			C123.9,370.5,125.8,370.6,126.9,371.9z"/>
	</g>
</g>
<g>
	<g>
		<path class="st0" d="M161.4,390.1c1.1,1.3,0.9,3.2-0.4,4.3c-1.3,1.1-3.2,0.9-4.3-0.4c-1.1-1.3-0.9-3.2,0.4-4.3
			C158.3,388.6,160.3,388.8,161.4,390.1z"/>
	</g>
	<g>
		<path class="st0" d="M160.8,403.6c1.1,1.3,0.9,3.2-0.4,4.3c-1.3,1.1-3.2,0.9-4.3-0.4s-0.9-3.2,0.4-4.3
			C157.8,402.2,159.7,402.3,160.8,403.6z"/>
	</g>
	<g>
		<path class="st0" d="M160.2,417.1c1.1,1.3,0.9,3.2-0.4,4.3c-1.3,1.1-3.2,0.9-4.3-0.4s-0.9-3.2,0.4-4.3
			C157.2,415.7,159.1,415.8,160.2,417.1z"/>
	</g>
	<g>
		<path class="st0" d="M160.2,431.1c1.1,1.3,0.9,3.2-0.4,4.3c-1.3,1.1-3.2,0.9-4.3-0.4s-0.9-3.2,0.4-4.3
			C157.2,429.7,159.1,429.8,160.2,431.1z"/>
	</g>
	<g>
		<path class="st0" d="M172.3,407.6c1.1,1.3,0.9,3.2-0.4,4.3c-1.3,1.1-3.2,0.9-4.3-0.4s-0.9-3.2,0.4-4.3
			C169.3,406.2,171.2,406.3,172.3,407.6z"/>
	</g>
	<g>
		<path class="st0" d="M172.3,394.4c1.1,1.3,0.9,3.2-0.4,4.3c-1.3,1.1-3.2,0.9-4.3-0.4s-0.9-3.2,0.4-4.3
			C169.3,392.9,171.2,393.1,172.3,394.4z"/>
	</g>
	<g>
		<path class="st0" d="M171.7,421.2c1.1,1.3,0.9,3.2-0.4,4.3c-1.3,1.1-3.2,0.9-4.3-0.4s-0.9-3.2,0.4-4.3
			C168.7,419.7,170.7,419.9,171.7,421.2z"/>
	</g>
	<g>
		<path class="st0" d="M150.2,399.6c1.1,1.3,0.9,3.2-0.4,4.3c-1.3,1.1-3.2,0.9-4.3-0.4s-0.9-3.2,0.4-4.3
			C147.1,398.1,149.1,398.3,150.2,399.6z"/>
	</g>
	<g>
		<path class="st0" d="M150.2,386c1.1,1.3,0.9,3.2-0.4,4.3c-1.3,1.1-3.2,0.9-4.3-0.4s-0.9-3.2,0.4-4.3
			C147.1,384.6,149.1,384.7,150.2,386z"/>
	</g>
	<g>
		<path class="st0" d="M149.6,413.1c1.1,1.3,0.9,3.2-0.4,4.3c-1.3,1.1-3.2,0.9-4.3-0.4s-0.9-3.2,0.4-4.3
			C146.6,411.7,148.5,411.8,149.6,413.1z"/>
	</g>
	<g>
		<path class="st0" d="M149,426.6c1.1,1.3,0.9,3.2-0.4,4.3c-1.3,1.1-3.2,0.9-4.3-0.4c-1.1-1.3-0.9-3.2,0.4-4.3
			C146,425.2,147.9,425.3,149,426.6z"/>
	</g>
	<g>
		<path class="st0" d="M138.4,422.6c1.1,1.3,0.9,3.2-0.4,4.3c-1.3,1.1-3.2,0.9-4.3-0.4c-1.1-1.3-0.9-3.2,0.4-4.3
			C135.4,421.2,137.3,421.3,138.4,422.6z"/>
	</g>
	<g>
		<path class="st0" d="M138.7,408.8c1.1,1.3,0.9,3.2-0.4,4.3c-1.3,1.1-3.2,0.9-4.3-0.4s-0.9-3.2,0.4-4.3
			C135.7,407.4,137.6,407.5,138.7,408.8z"/>
	</g>
	<g>
		<path class="st0" d="M137.8,436.1c1.1,1.3,0.9,3.2-0.4,4.3c-1.3,1.1-3.2,0.9-4.3-0.4s-0.9-3.2,0.4-4.3
			C134.8,434.7,136.8,434.8,137.8,436.1z"/>
	</g>
	<g>
		<path class="st0" d="M149,439.2c1.1,1.3,0.9,3.2-0.4,4.3c-1.3,1.1-3.2,0.9-4.3-0.4c-1.1-1.3-0.9-3.2,0.4-4.3
			C146,437.7,147.9,437.9,149,439.2z"/>
	</g>
	<g>
		<path class="st0" d="M137.8,448.7c1.1,1.3,0.9,3.2-0.4,4.3c-1.3,1.1-3.2,0.9-4.3-0.4s-0.9-3.2,0.4-4.3
			C134.8,447.2,136.8,447.4,137.8,448.7z"/>
	</g>
	<g>
		<path class="st0" d="M127.2,432.1c1.1,1.3,0.9,3.2-0.4,4.3c-1.3,1.1-3.2,0.9-4.3-0.4c-1.1-1.3-0.9-3.2,0.4-4.3
			C124.2,430.7,126.1,430.8,127.2,432.1z"/>
	</g>
	<g>
		<path class="st0" d="M126.7,445.6c1.1,1.3,0.9,3.2-0.4,4.3c-1.3,1.1-3.2,0.9-4.3-0.4c-1.1-1.3-0.9-3.2,0.4-4.3
			C123.6,444.2,125.6,444.3,126.7,445.6z"/>
	</g>
	<g>
		<path class="st0" d="M116,441.6c1.1,1.3,0.9,3.2-0.4,4.3c-1.3,1.1-3.2,0.9-4.3-0.4c-1.1-1.3-0.9-3.2,0.4-4.3
			C113,440.2,114.9,440.3,116,441.6z"/>
	</g>
	<g>
		<path class="st0" d="M115.5,455.1c1.1,1.3,0.9,3.2-0.4,4.3c-1.3,1.1-3.2,0.9-4.3-0.4c-1.1-1.3-0.9-3.2,0.4-4.3
			C112.4,453.7,114.4,453.8,115.5,455.1z"/>
	</g>
	<g>
		<path class="st0" d="M105.7,437.3c1.1,1.3,0.9,3.2-0.4,4.3c-1.3,1.1-3.2,0.9-4.3-0.4s-0.9-3.2,0.4-4.3
			C102.7,435.8,104.6,436,105.7,437.3z"/>
	</g>
	<g>
		<path class="st0" d="M105.1,450.8c1.1,1.3,0.9,3.2-0.4,4.3c-1.3,1.1-3.2,0.9-4.3-0.4c-1.1-1.3-0.9-3.2,0.4-4.3
			C102.1,449.3,104,449.5,105.1,450.8z"/>
	</g>
	<g>
		<path class="st0" d="M126.7,458.2c1.1,1.3,0.9,3.2-0.4,4.3c-1.3,1.1-3.2,0.9-4.3-0.4c-1.1-1.3-0.9-3.2,0.4-4.3
			C123.6,456.7,125.6,456.9,126.7,458.2z"/>
	</g>
</g>
<g>
	<g>
		<path class="st0" d="M243.2,182.5c0,3-2.4,5.4-5.4,5.4s-5.4-2.4-5.4-5.4s2.4-5.4,5.4-5.4S243.2,179.5,243.2,182.5z"/>
	</g>
	<g>
		<path class="st0" d="M241.2,181.8c-0.5,0-0.9-0.3-1-0.8l-5.4-25.4c-0.1-0.5,0.2-1.1,0.8-1.2c0.5-0.1,1.1,0.2,1.2,0.8l5.4,25.4
			c0.1,0.5-0.2,1.1-0.8,1.2C241.3,181.8,241.3,181.8,241.2,181.8z"/>
	</g>
	<g>
		<path class="st0" d="M238.5,161.5c0.6,2.8-0.7-3.3-1.5-7.1c5.7,4.1,9.4,3.4,14.5,0.8C247.9,160.3,245.7,161.7,238.5,161.5z"/>
	</g>
</g>
<g>
	<g>
		<g>
			<path class="st0" d="M310.1,214c-1.5,1.8-4.2,2-5.9,0.5c-1.8-1.5-2-4.2-0.5-5.9c1.5-1.8,4.2-2,5.9-0.5
				C311.4,209.6,311.6,212.2,310.1,214z"/>
		</g>
	</g>
	<g>
		<g>
			<path class="st0" d="M309.8,213.3c-0.2,0-0.4-0.1-0.6-0.2c-0.6-0.4-0.9-1.2-0.5-1.8l9.6-17.7c0.4-0.6,1.2-0.9,1.8-0.5
				c0.6,0.4,0.9,1.2,0.5,1.8l-9.6,17.7C310.8,213.1,310.3,213.3,309.8,213.3z"/>
		</g>
	</g>
	<g>
		<g>
			<path class="st0" d="M318,199.3c-1.1,2,1.3-2.3,2.7-5c1.3,5.2,3.8,6.7,8.2,7.8C324.1,203.3,322.1,203,318,199.3z"/>
		</g>
	</g>
</g>
<g>
	<g>
		<g>
			<g>
				<path class="st0" d="M284.5,162.8c-1.2,2.7-4.4,4-7.1,2.8c-2.7-1.2-4-4.4-2.8-7.1c1.2-2.7,4.4-4,7.1-2.8
					C284.4,156.8,285.7,160,284.5,162.8z"/>
			</g>
		</g>
		<g>
			<g>
				<path class="st0" d="M282.7,162c-0.7-0.3-1.2-1.1-1-1.9l5-25.5c0.2-0.9,1.1-1.5,2-1.3c0.9,0.2,1.5,1.1,1.3,2l-5,25.5
					c-0.2,0.9-1.1,1.5-2,1.3C282.9,162.1,282.8,162,282.7,162z"/>
			</g>
		</g>
	</g>
	<g>
		<g>
			<g>
				<path class="st0" d="M306.2,162.6c-1.2,2.7-4.4,4-7.1,2.8c-2.7-1.2-4-4.4-2.8-7.1c1.2-2.7,4.4-4,7.1-2.8
					C306.1,156.7,307.4,159.9,306.2,162.6z"/>
			</g>
		</g>
		<g>
			<g>
				<path class="st0" d="M304.4,161.8c-0.7-0.3-1.2-1.1-1-1.9l5-25.5c0.2-0.9,1.1-1.5,2-1.3s1.5,1.1,1.3,2l-5,25.5
					c-0.2,0.9-1.1,1.5-2,1.3C304.6,161.9,304.5,161.9,304.4,161.8z"/>
			</g>
		</g>
	</g>
	<g>
		<g>
			<polygon class="st0" points="309,140.3 287,140.5 288.4,133.4 310.4,133.2 			"/>
		</g>
	</g>
	<g>
		<g>
			<polygon class="st0" points="308.2,145.4 286.2,145.6 286.9,142 308.9,141.8 			"/>
		</g>
	</g>
</g>
<g>
	<path class="st0" d="M225.1,358.5c-0.6,0-1.1-0.3-1.4-0.9c-0.2-0.4-1.7-3.8-0.6-6.7c0.5-1.2,1.4-2.2,2.7-2.7c0.8-0.3,1.6,0,2,0.8
		s0,1.6-0.8,2c-0.5,0.2-0.9,0.6-1.1,1.1c-0.5,1.4,0.2,3.6,0.5,4.3c0.3,0.8,0,1.6-0.7,2C225.5,358.5,225.3,358.5,225.1,358.5z"/>
</g>
<g>
	<path class="st0" d="M246.2,385.5c-0.4,0-0.9-0.2-1.2-0.6l-37.5-48c-0.1-0.2-8.3-11.9-19.7-12.2c-10.1-0.3-20.5,2.2-21.8,22.3
		c0,0.8-0.8,1.5-1.6,1.4c-0.8,0-1.5-0.8-1.4-1.6c1.4-23,14.9-25.3,24.8-25.1c12.9,0.3,21.6,12.9,22,13.5l37.4,47.9
		c0.5,0.7,0.4,1.6-0.3,2.1C246.8,385.4,246.5,385.5,246.2,385.5z"/>
</g>
<g>
	<path class="st0" d="M232.8,467.6c-0.3,0-0.6-0.1-0.8-0.3c-20.4-13.6-46.4-39.7-54.3-86.9c-0.1-0.8,0.4-1.6,1.2-1.7
		c0.8-0.1,1.6,0.4,1.7,1.2c7.8,46.1,33.2,71.6,53.1,84.9c0.7,0.5,0.9,1.4,0.4,2.1C233.8,467.4,233.3,467.6,232.8,467.6z"/>
</g>
<g>
	<path class="st0" d="M228,477.4C228,477.4,228,477.4,228,477.4c-12.3-0.2-15.5-25.6-15.6-26.7c-0.1-0.8,0.5-1.6,1.3-1.7
		c0.8-0.1,1.6,0.5,1.7,1.3c0.8,6.6,4.6,23.9,12.6,24.1c0.8,0,1.5,0.7,1.5,1.5C229.5,476.7,228.8,477.4,228,477.4z"/>
</g>
<g>
	<path class="st0" d="M141,388.8c-0.2,0-0.5-0.1-0.7-0.2c-0.7-0.4-18-9.5-27.2-17.1c-8.1-6.8-2.5-17.9,1.6-22.9c0,0,0.1-0.1,0.1-0.1
		c7.9-8,20.8-1.4,21.4-1.1l15.7,7.7c0.7,0.4,1.1,1.3,0.7,2c-0.4,0.7-1.3,1.1-2,0.7l-15.7-7.7c-0.1-0.1-11.5-5.9-17.8,0.5
		c-0.3,0.4-2.7,3.4-4,7.1c-1.8,5-1.1,8.8,2.1,11.5c8.9,7.4,26.5,16.6,26.6,16.7c0.7,0.4,1,1.3,0.6,2
		C142.1,388.5,141.5,388.8,141,388.8z"/>
</g>
<g>
	<path class="st0" d="M119.2,375.8c-0.2,0-0.4,0-0.6-0.1c-0.8-0.3-1.1-1.2-0.8-2c7.7-18.1,6.9-25.3,6.9-25.3
		c-0.1-0.8,0.5-1.6,1.3-1.7c0.8-0.1,1.6,0.5,1.7,1.3c0,0.3,1,7.8-7.1,26.9C120.3,375.5,119.8,375.8,119.2,375.8z"/>
</g>
<g>
	<path class="st0" d="M92.4,466.8c-0.1,0-0.2,0-0.4,0c-0.8-0.2-1.3-1-1.1-1.8c2.8-11.6,0-27.5,0-27.7c-0.1-0.8,0.4-1.6,1.2-1.7
		c0.8-0.1,1.6,0.4,1.7,1.2c0.1,0.7,2.9,16.7,0,28.9C93.7,466.3,93.1,466.8,92.4,466.8z"/>
</g>
<g>
	<path class="st0" d="M181.1,396.4C181.1,396.4,181.1,396.4,181.1,396.4c-26.2-1.3-37.1-14.7-37.6-15.3c-0.5-0.6-0.4-1.6,0.2-2.1
		c0.6-0.5,1.6-0.4,2.1,0.2l0,0c0.1,0.1,10.7,12.9,35.3,14.1c0.8,0,1.5,0.7,1.4,1.6C182.6,395.8,181.9,396.4,181.1,396.4z"/>
</g>
<g>
	<path class="st0" d="M139.8,464.8C139.8,464.8,139.8,464.8,139.8,464.8c-0.8,0-1.5-0.7-1.5-1.5c0-0.5,0.1-13,8.8-20.4
		c5.3-4.6,12.7-6.2,21.8-4.9c0.8,0.1,1.4,0.9,1.3,1.7c-0.1,0.8-0.9,1.4-1.7,1.3c-8.2-1.2-14.7,0.2-19.4,4.2
		c-7.6,6.5-7.8,18.1-7.8,18.2C141.3,464.1,140.6,464.8,139.8,464.8z"/>
</g>
</svg>
